<?xml version="1.0" encoding="UTF-8" standalone="no"?>
<!-- Created with Inkscape (http://www.inkscape.org/) -->

<svg
   width="549"
   height="95"
   viewBox="0 0 549 95"
   id="SVGRoot"
   version="1.1"
   enable-background="new"
   xml:space="preserve"
   xmlns:xlink="http://www.w3.org/1999/xlink"
   xmlns="http://www.w3.org/2000/svg"
   xmlns:svg="http://www.w3.org/2000/svg"><defs
     id="defs4787"><clipPath
       clipPathUnits="userSpaceOnUse"
       id="patternClipPath"><rect
         y="0"
         x="0"
         height="95"
         width="549"
         id="clipPathRect"
         style="color:#000000;display:inline;overflow:visible;visibility:visible;opacity:1;fill:#ffff00;fill-opacity:1;fill-rule:nonzero;stroke:none;stroke-width:20;stroke-linecap:square;stroke-linejoin:miter;stroke-miterlimit:4;stroke-dasharray:none;stroke-dashoffset:1.0989;stroke-opacity:1;marker:none;enable-background:accumulate" /></clipPath><marker
       orient="auto"
       refY="0"
       refX="0"
       id="Arrow2Mend"
       style="overflow:visible"><path
         id="path19572"
         style="fill:#000000;fill-opacity:1;fill-rule:evenodd;stroke:#000000;stroke-width:0.625;stroke-linejoin:round;stroke-opacity:1"
         d="M 8.7185878,4.0337352 -2.2072895,0.01601326 8.7185884,-4.0017078 c -1.7454984,2.3720609 -1.7354408,5.6174519 -6e-7,8.035443 z"
         transform="scale(-0.6)" /></marker></defs><g
     id="patternLayer"
     style="display:inline"><use
       style="opacity:0.3"
       height="100%"
       width="100%"
       id="phantomTop"
       xlink:href="#designTop"
       y="0"
       x="0" /><g
       id="infoGroup"
       transform="scale(0.549)"><rect
         style="opacity:1;fill:#ffffff;fill-opacity:1;fill-rule:evenodd;stroke:none;stroke-width:76.9908;stroke-linecap:round;stroke-linejoin:round;stroke-miterlimit:4;stroke-dasharray:none;stroke-dashoffset:0;stroke-opacity:1;paint-order:normal"
         id="rect4130"
         width="526.66248"
         height="360.00635"
         x="-348.83969"
         y="-380.86212" /><text
         xml:space="preserve"
         style="font-style:normal;font-variant:normal;font-weight:normal;font-stretch:normal;line-height:0%;font-family:sans-serif;-inkscape-font-specification:Verdana;letter-spacing:0px;word-spacing:0px;fill:#000000;fill-opacity:1;stroke:none"
         x="-326.82172"
         y="-349.80621"
         id="text8664"><tspan
           style="font-style:normal;font-variant:normal;font-weight:bold;font-stretch:normal;font-size:23.6686px;line-height:1.25;font-family:sans-serif;-inkscape-font-specification:'sans-serif Bold'"
           id="tspan8666"
           x="-326.82172"
           y="-349.80621">Seamless pattern</tspan></text><flowRoot
         xml:space="preserve"
         id="infoText"
         style="font-style:normal;font-variant:normal;font-weight:normal;font-stretch:normal;line-height:0.01%;font-family:sans-serif;-inkscape-font-specification:sans-serif;letter-spacing:0px;word-spacing:0px;fill:#000000;fill-opacity:1;stroke:none"
         transform="translate(-709.3014,-231.7039)"><flowRegion
           id="flowRegion11597"><rect
             ry="0.97061312"
             id="rect11599"
             width="491.7114"
             height="324.99371"
             x="383.75671"
             y="-110.4523"
             style="font-style:normal;font-variant:normal;font-weight:normal;font-stretch:normal;font-size:13.75px;font-family:sans-serif;-inkscape-font-specification:sans-serif" /></flowRegion><flowPara
           style="font-style:normal;font-variant:normal;font-weight:normal;font-stretch:normal;font-size:12.5px;line-height:1.25;font-family:Cantarell;-inkscape-font-specification:Cantarell"
           id="flowPara6756">Use the layers &quot;<flowSpan
   style="font-style:normal;font-variant:normal;font-weight:bold;font-stretch:normal;font-family:Cantarell;-inkscape-font-specification:'Cantarell Bold'"
   id="flowSpan7476">Pattern Foreground</flowSpan>&quot; and &quot;<flowSpan
   style="font-style:normal;font-variant:normal;font-weight:bold;font-stretch:normal;font-family:Cantarell;-inkscape-font-specification:'Cantarell Bold'"
   id="flowSpan7478">Pattern Background</flowSpan>&quot; on the pattern page to create your design. The separation into two layers will make it easier for you to create and edit overlapping content like a foreground drawing with a background fill.</flowPara><flowPara
           style="font-style:normal;font-variant:normal;font-weight:normal;font-stretch:normal;font-size:12.5px;line-height:1.25;font-family:Cantarell;-inkscape-font-specification:Cantarell"
           id="flowPara7456"> </flowPara><flowPara
           style="font-style:normal;font-variant:normal;font-weight:normal;font-stretch:normal;font-size:12.5px;line-height:1.25;font-family:Cantarell;-inkscape-font-specification:Cantarell"
           id="flowPara7458">The layer named &quot;<flowSpan
   style="font-style:normal;font-variant:normal;font-weight:bold;font-stretch:normal;font-family:Cantarell;-inkscape-font-specification:'Cantarell Bold'"
   id="flowSpan7480">Pattern</flowSpan>&quot; is for using the seamless pattern, copying it to other documents, adding opacity etc. </flowPara><flowPara
           style="font-style:normal;font-variant:normal;font-weight:normal;font-stretch:normal;font-size:12.5px;line-height:1.25;font-family:Cantarell;-inkscape-font-specification:Cantarell"
           id="flowPara7460">Select the group on the page, and use <flowSpan
   style="font-style:normal;font-variant:normal;font-weight:bold;font-stretch:normal;font-family:Cantarell;-inkscape-font-specification:'Cantarell Bold'"
   id="flowSpan7484">Object-&gt;Pattern-&gt;Objects to Pattern</flowSpan> to convert your creation into a fill pattern.</flowPara><flowPara
           style="font-style:normal;font-variant:normal;font-weight:normal;font-stretch:normal;font-size:12.5px;line-height:1.25;font-family:Cantarell;-inkscape-font-specification:Cantarell"
           id="flowPara7462"> </flowPara><flowPara
           style="font-style:normal;font-variant:normal;font-weight:normal;font-stretch:normal;font-size:12.5px;line-height:1.25;font-family:Cantarell;-inkscape-font-specification:Cantarell"
           id="flowPara7464">The layer &quot;<flowSpan
   style="font-style:normal;font-variant:normal;font-weight:bold;font-stretch:normal;font-family:Cantarell;-inkscape-font-specification:'Cantarell Bold'"
   id="flowSpan7482">Preview Background</flowSpan>&quot; provides an easy way to preview your creation if it contains transparency.</flowPara><flowPara
           style="font-style:normal;font-variant:normal;font-weight:normal;font-stretch:normal;font-size:12.5px;line-height:1.25;font-family:Cantarell;-inkscape-font-specification:Cantarell"
           id="flowPara7466">Changing this layer's visibility will not alter the pattern.</flowPara><flowPara
           style="font-style:normal;font-variant:normal;font-weight:normal;font-stretch:normal;font-size:12.5px;line-height:1.25;font-family:Cantarell;-inkscape-font-specification:Cantarell"
           id="flowPara7468"> </flowPara><flowPara
           style="font-style:normal;font-variant:normal;font-weight:normal;font-stretch:normal;font-size:12.5px;line-height:1.25;font-family:Cantarell;-inkscape-font-specification:Cantarell"
           id="flowPara7470">If an object is moved outside the pattern/page limits, it will be difficult to select it. </flowPara><flowPara
           style="font-style:normal;font-variant:normal;font-weight:normal;font-stretch:normal;font-size:12.5px;line-height:1.25;font-family:Cantarell;-inkscape-font-specification:Cantarell"
           id="flowPara7472">To move it back onto the page, select the object using the rubberband selection (click and drag a selection box) with the selection tool.</flowPara><flowPara
           style="font-style:normal;font-variant:normal;font-weight:normal;font-stretch:normal;font-size:12.5px;line-height:1.25;font-family:Cantarell;-inkscape-font-specification:Cantarell"
           id="flowPara7474">Then move it back onto the page, using the arrow keys or the &quot;Align and Distribute&quot; dialog (Shift+Ctrl+A).</flowPara></flowRoot><path
         id="path19539"
         d="m -354.4906,-359.49 h -6.1704 V 51.51566 h 229.6052"
         style="color:#000000;text-decoration:none;text-decoration-line:none;display:inline;overflow:visible;visibility:visible;fill:none;stroke:#000000;stroke-width:3.77953;stroke-linecap:butt;stroke-linejoin:miter;stroke-miterlimit:4;stroke-dasharray:none;stroke-dashoffset:0;stroke-opacity:1;marker:none;marker-end:url(#Arrow2Mend);enable-background:accumulate" /></g><g
       clip-path="url(#patternClipPath)"
       id="fullPattern"
       style="display:inline"><g
         id="designBottom"
         transform="scale(5.49,0.95)" /><g
         id="designTop"
         transform="scale(5.49,0.95)"><g
           id="layer1"
           transform="matrix(0.80350179,0,0,4.6433944,-40.725387,-455.25554)"
           style="opacity:0.5"><path
             style="fill:#000000;fill-opacity:0.02;stroke-width:0.211667"
             d="m 10.3145,109.919 c 4.1481,-4.396 8.2962,-8.79 12.4443,-12.8055 4.1481,-4.0159 8.2962,-7.6499 12.4443,-10.5914 4.1481,-2.9414 8.2962,-5.1874 12.4443,-6.5458 4.1481,-1.3584 8.2962,-1.828 12.4443,-1.3685 4.1481,0.4596 8.2962,1.8476 12.4443,4.0456 4.1481,2.198 8.2962,5.2036 12.4443,8.76 4.1481,3.5564 8.2962,7.6599 12.4443,11.9596 4.1484,4.3 8.2964,8.792 12.4444,13.092 4.148,4.3 8.296,8.403 12.444,11.96 4.148,3.556 8.296,6.562 12.444,8.76 4.149,2.198 8.297,3.586 12.445,4.045 4.148,0.46 8.296,-0.01 12.444,-1.368 4.148,-1.359 8.296,-3.605 12.444,-6.546 4.149,-2.941 8.297,-6.575 12.445,-10.591 4.148,-4.016 8.296,-8.41 12.444,-12.806"
             title="sin(x)"
             id="path3092" /><path
             style="fill:#000000;fill-opacity:0.02;stroke-width:0.211667"
             d="m 10.3145,109.919 c 4.1481,-4.396 8.2962,-8.781 12.4443,-12.337 4.1481,-3.5564 8.2962,-6.2664 12.4443,-7.6248 4.1481,-1.3584 8.2962,-1.3584 12.4443,0 4.1481,1.3584 8.2962,4.0684 12.4443,7.6248 4.1481,3.556 8.2962,7.941 12.4443,12.337 4.1481,4.396 8.2962,8.781 12.4443,12.337 4.1481,3.557 8.2962,6.266 12.4443,7.625 4.1484,1.358 8.2964,1.358 12.4444,0 4.148,-1.359 8.296,-4.068 12.444,-7.625 4.148,-3.556 8.296,-7.941 12.444,-12.337 4.149,-4.396 8.297,-8.781 12.445,-12.337 4.148,-3.5564 8.296,-6.2664 12.444,-7.6248 4.148,-1.3584 8.296,-1.3584 12.444,0 4.149,1.3584 8.297,4.0684 12.445,7.6248 4.148,3.556 8.296,7.941 12.444,12.337"
             title="sin(x)"
             id="path3154" /><path
             style="fill:#000000;fill-opacity:0.02;stroke-width:0.211667"
             d="m 10.3145,109.919 c 4.1481,-4.396 8.2962,-8.708 12.4443,-10.9062 4.1481,-2.198 8.2962,-2.198 12.4443,0 4.1481,2.1982 8.2962,6.5102 12.4443,10.9062 4.1481,4.396 8.2962,8.708 12.4443,10.906 4.1481,2.198 8.2962,2.198 12.4443,0 4.1481,-2.198 8.2962,-6.51 12.4443,-10.906 4.1481,-4.396 8.2962,-8.708 12.4443,-10.9062 4.1484,-2.198 8.2964,-2.198 12.4444,0 4.148,2.1982 8.296,6.5102 12.444,10.9062 4.148,4.396 8.296,8.708 12.444,10.906 4.149,2.198 8.297,2.198 12.445,0 4.148,-2.198 8.296,-6.51 12.444,-10.906 4.148,-4.396 8.296,-8.708 12.444,-10.9062 4.149,-2.198 8.297,-2.198 12.445,0 4.148,2.1982 8.296,6.5102 12.444,10.9062"
             title="sin(x)"
             id="path3390" /><path
             style="fill:#000000;fill-opacity:0.02;stroke-width:0.211667"
             d="m 10.3145,109.919 c 4.1481,-4.396 8.2962,-8.487 12.4443,-8.946 4.1481,-0.46 8.2962,2.776 12.4443,7.076 4.1481,4.3 8.2962,9.067 12.4443,10.425 4.1481,1.359 8.2962,-0.88 12.4443,-4.896 4.1481,-4.016 8.2962,-9.251 12.4443,-11.449 4.1481,-2.1981 8.2962,-1.054 12.4443,2.503 4.1481,3.556 8.2962,9.03 12.4443,11.972 4.1484,2.941 8.2964,2.941 12.4444,0 4.148,-2.942 8.296,-8.416 12.444,-11.972 4.148,-3.557 8.296,-4.7011 12.444,-2.503 4.149,2.198 8.297,7.433 12.445,11.449 4.148,4.016 8.296,6.255 12.444,4.896 4.148,-1.358 8.296,-6.125 12.444,-10.425 4.149,-4.3 8.297,-7.536 12.445,-7.076 4.148,0.459 8.296,4.55 12.444,8.946"
             title="sin(x)"
             id="path3422" /><path
             style="fill:#000000;fill-opacity:0.02;stroke-width:0.211667"
             d="m 10.3145,109.919 c 4.1481,-4.396 8.2962,-8.012 12.4443,-6.654 4.1481,1.359 8.2962,7.21 12.4443,10.766 4.1481,3.557 8.2962,3.557 12.4443,0 4.1481,-3.556 8.2962,-9.407 12.4443,-10.766 4.1481,-1.358 8.2962,2.258 12.4443,6.654 4.1481,4.396 8.2962,8.012 12.4443,6.654 4.1481,-1.358 8.2962,-7.21 12.4443,-10.766 4.1484,-3.557 8.2964,-3.557 12.4444,0 4.148,3.556 8.296,9.408 12.444,10.766 4.148,1.358 8.296,-2.258 12.444,-6.654 4.149,-4.396 8.297,-8.012 12.445,-6.654 4.148,1.359 8.296,7.21 12.444,10.766 4.148,3.557 8.296,3.557 12.444,0 4.149,-3.556 8.297,-9.407 12.445,-10.766 4.148,-1.358 8.296,2.258 12.444,6.654"
             title="sin(x)"
             id="path3466" /></g></g><g
         id="designBottomGenerator"><use
           height="100%"
           width="100%"
           id="bottom1"
           transform="translate(-549,-95)"
           xlink:href="#designBottom"
           y="0"
           x="0" /><use
           height="100%"
           width="100%"
           id="bottom2"
           transform="translate(0,-95)"
           xlink:href="#designBottom"
           y="0"
           x="0" /><use
           height="100%"
           width="100%"
           id="bottom3"
           transform="translate(549,-95)"
           xlink:href="#designBottom"
           y="0"
           x="0" /><use
           height="100%"
           width="100%"
           id="bottom4"
           transform="translate(-549)"
           xlink:href="#designBottom"
           y="0"
           x="0" /><use
           height="100%"
           width="100%"
           id="bottom5"
           xlink:href="#designBottom"
           y="0"
           x="0" /><use
           height="100%"
           width="100%"
           id="bottom6"
           transform="translate(549)"
           xlink:href="#designBottom"
           y="0"
           x="0" /><use
           height="100%"
           width="100%"
           id="bottom7"
           transform="translate(-549,95)"
           xlink:href="#designBottom"
           y="0"
           x="0" /><use
           height="100%"
           width="100%"
           id="bottom8"
           transform="translate(0,95)"
           xlink:href="#designBottom"
           y="0"
           x="0" /><use
           transform="translate(549,95)"
           height="100%"
           width="100%"
           id="bottom9"
           xlink:href="#designBottom"
           y="0"
           x="0" /></g><g
         id="designTopGenerator"><use
           height="100%"
           width="100%"
           id="top1"
           transform="translate(-549,-95)"
           xlink:href="#designTop"
           y="0"
           x="0" /><use
           height="100%"
           width="100%"
           id="top2"
           transform="translate(0,-95)"
           xlink:href="#designTop"
           y="0"
           x="0" /><use
           height="100%"
           width="100%"
           id="top3"
           transform="translate(549,-95)"
           xlink:href="#designTop"
           y="0"
           x="0" /><use
           height="100%"
           width="100%"
           id="top4"
           transform="translate(-549)"
           xlink:href="#designTop"
           y="0"
           x="0" /><use
           height="100%"
           width="100%"
           id="top5"
           xlink:href="#designTop"
           y="0"
           x="0" /><use
           height="100%"
           width="100%"
           id="top6"
           transform="translate(549)"
           xlink:href="#designTop"
           y="0"
           x="0" /><use
           height="100%"
           width="100%"
           id="top7"
           transform="translate(-549,95)"
           xlink:href="#designTop"
           y="0"
           x="0" /><use
           height="100%"
           width="100%"
           id="top8"
           transform="translate(0,95)"
           xlink:href="#designTop"
           y="0"
           x="0" /><use
           transform="translate(549,95)"
           height="100%"
           width="100%"
           id="top9"
           xlink:href="#designTop"
           y="0"
           x="0" /></g></g></g></svg>
